<?xml version="1.0" standalone="no"?>
<!DOCTYPE svg PUBLIC "-//W3C//DTD SVG 20010904//EN"
 "http://www.w3.org/TR/2001/REC-SVG-20010904/DTD/svg10.dtd">
<svg version="1.0" xmlns="http://www.w3.org/2000/svg"
 width="128.000000pt" height="128.000000pt" viewBox="0 0 128.000000 128.000000"
 preserveAspectRatio="xMidYMid meet">
<metadata>
Created by potrace 1.11, written by Peter Selinger 2001-2013
</metadata>
<g transform="translate(0.000000,128.000000) scale(0.100000,-0.100000)"
fill="#000000" stroke="none">
<path d="M77 1273 c-4 -3 -7 -41 -7 -84 0 -69 2 -78 20 -84 11 -3 24 -3 30 0
10 6 13 0 13 -30 0 -46 -7 -59 -54 -102 -28 -27 -57 -60 -64 -74 -19 -35 -22
-863 -4 -885 13 -16 288 -17 876 -5 l313 6 36 36 c62 62 58 145 -11 209 -26
24 -32 25 -186 28 -141 3 -157 5 -144 18 8 9 16 30 16 47 1 18 2 37 4 42 1 6
3 13 3 17 1 4 34 -4 73 -17 88 -30 165 -39 199 -22 25 12 88 125 89 158 3 63
-163 186 -322 238 -67 23 -171 32 -195 17 -18 -11 -72 -121 -73 -148 0 -13 2
-33 6 -45 6 -17 3 -23 -9 -23 -13 0 -16 12 -17 68 -5 271 -2 260 -87 337 -35
32 -45 49 -49 83 -5 40 -4 42 20 42 14 0 29 6 34 13 11 18 12 140 0 155 -7 9
-71 12 -257 12 -135 0 -250 -3 -253 -7z"/>
</g>
</svg>
